<svg width="131" height="99" viewBox="0 0 131 99" fill="none" xmlns="http://www.w3.org/2000/svg">
<path d="M7.12803 77.36L1.17003 64.508H4.39203L8.24403 73.886L7.12803 77.36ZM7.12803 77.36L7.07403 75.164L11.646 64.454H12.942L8.17203 75.002C8.14803 75.074 8.08803 75.212 7.99203 75.416C7.90803 75.608 7.81203 75.83 7.70403 76.082C7.59603 76.334 7.50003 76.58 7.41603 76.82C7.34403 77.048 7.30203 77.228 7.29003 77.36H7.12803ZM11.106 65.714C11.262 65.354 11.244 65.078 11.052 64.886C10.86 64.682 10.65 64.58 10.422 64.58H10.26V64.4H14.112V64.58C14.112 64.58 14.082 64.58 14.022 64.58C13.974 64.58 13.95 64.58 13.95 64.58C13.686 64.58 13.404 64.67 13.104 64.85C12.816 65.018 12.576 65.306 12.384 65.714H11.106ZM4.89603 65.714H1.72803C1.53603 65.306 1.29003 65.018 0.990028 64.85C0.702028 64.67 0.420028 64.58 0.144028 64.58C0.144028 64.58 0.120028 64.58 0.0720283 64.58C0.0240283 64.58 2.83048e-05 64.58 2.83048e-05 64.58V64.4H5.72403V64.58H5.56203C5.33403 64.58 5.13003 64.682 4.95003 64.886C4.78203 65.078 4.76403 65.354 4.89603 65.714Z" fill="url(#paint0_linear_281_6474)"/>
<path d="M18.88 67.2V77H16.78V67.2H18.88ZM22.576 76.398L22.912 77H18.838V76.398H22.576ZM23.598 74.13L22.954 77H20.21L20.714 76.398C21.1807 76.398 21.5913 76.3093 21.946 76.132C22.3007 75.9453 22.604 75.684 22.856 75.348C23.108 75.0027 23.3087 74.5967 23.458 74.13H23.598ZM16.822 75.978V77H15.702V76.86C15.702 76.86 15.73 76.86 15.786 76.86C15.8513 76.86 15.884 76.86 15.884 76.86C16.1267 76.86 16.332 76.776 16.5 76.608C16.6773 76.4307 16.7707 76.2207 16.78 75.978H16.822ZM16.822 68.222H16.78C16.7707 67.9793 16.6773 67.774 16.5 67.606C16.332 67.4287 16.1267 67.34 15.884 67.34C15.884 67.34 15.8513 67.34 15.786 67.34C15.73 67.34 15.702 67.34 15.702 67.34V67.2H16.822V68.222ZM18.838 68.222V67.2H19.958V67.34C19.9487 67.34 19.916 67.34 19.86 67.34C19.804 67.34 19.776 67.34 19.776 67.34C19.5333 67.34 19.3233 67.4287 19.146 67.606C18.978 67.774 18.8893 67.9793 18.88 68.222H18.838Z" fill="url(#paint1_linear_281_6474)"/>
<path d="M39.294 64.148L39.438 66.11L34.092 75.38C34.092 75.38 34.032 75.488 33.912 75.704C33.792 75.908 33.672 76.16 33.552 76.46C33.444 76.76 33.39 77.06 33.39 77.36H33.21L32.508 75.794L39.294 64.148ZM27.09 75.686V77H25.092V76.82C25.104 76.82 25.158 76.82 25.254 76.82C25.338 76.82 25.38 76.82 25.38 76.82C25.704 76.82 25.992 76.724 26.244 76.532C26.496 76.328 26.646 76.046 26.694 75.686H27.09ZM27.882 75.974C27.882 75.986 27.882 75.998 27.882 76.01C27.882 76.022 27.882 76.04 27.882 76.064C27.882 76.256 27.948 76.436 28.08 76.604C28.224 76.76 28.392 76.838 28.584 76.838H28.854V77H27.756V75.974H27.882ZM28.188 64.148H28.35L28.98 65.948L27.774 77H26.514L28.188 64.148ZM28.35 64.148L34.236 73.814L33.21 77.36L27.882 68.414L28.35 64.148ZM39.456 64.148L41.166 77H38.268L37.368 68.72L39.294 64.148H39.456ZM40.608 75.686H40.986C41.046 76.046 41.202 76.328 41.454 76.532C41.706 76.724 41.988 76.82 42.3 76.82C42.3 76.82 42.348 76.82 42.444 76.82C42.54 76.82 42.588 76.82 42.588 76.82V77H40.608V75.686ZM38.16 75.974H38.286V77H37.188V76.838H37.458C37.662 76.838 37.83 76.76 37.962 76.604C38.094 76.436 38.16 76.256 38.16 76.064C38.16 76.04 38.16 76.022 38.16 76.01C38.16 75.998 38.16 75.986 38.16 75.974Z" fill="url(#paint2_linear_281_6474)"/>
<path d="M48.578 66.48L53.81 77.904H50.93L47.602 69.568L48.578 66.48ZM45.138 76.832C45.0527 77.0453 45.0367 77.2267 45.09 77.376C45.1433 77.5253 45.234 77.6427 45.362 77.728C45.49 77.8027 45.618 77.84 45.746 77.84H45.89V78H42.466V77.84C42.466 77.84 42.4927 77.84 42.546 77.84C42.5887 77.84 42.61 77.84 42.61 77.84C42.8553 77.84 43.106 77.7653 43.362 77.616C43.6287 77.456 43.8473 77.1947 44.018 76.832H45.138ZM48.578 66.48L48.642 68.432L44.674 77.952H43.506L47.65 68.576C47.682 68.512 47.7353 68.3947 47.81 68.224C47.8953 68.0427 47.9807 67.84 48.066 67.616C48.162 67.392 48.2473 67.1787 48.322 66.976C48.3967 66.7627 48.434 66.5973 48.434 66.48H48.578ZM50.258 74.192V74.864H45.554V74.192H50.258ZM50.498 76.832H53.298C53.4793 77.1947 53.698 77.456 53.954 77.616C54.21 77.7653 54.4607 77.84 54.706 77.84C54.706 77.84 54.7273 77.84 54.77 77.84C54.8127 77.84 54.834 77.84 54.834 77.84V78H49.746V77.84H49.89C50.1033 77.84 50.29 77.7547 50.45 77.584C50.61 77.4027 50.626 77.152 50.498 76.832ZM65.9191 73.328L66.0631 76.08C65.8285 76.4747 65.5138 76.832 65.1191 77.152C64.7245 77.472 64.2338 77.7333 63.6471 77.936C63.0605 78.128 62.3671 78.224 61.5671 78.224C60.2658 78.2133 59.1245 77.9787 58.1431 77.52C57.1725 77.0507 56.4205 76.384 55.8871 75.52C55.3538 74.656 55.0871 73.6107 55.0871 72.384C55.0871 71.1893 55.3485 70.16 55.8711 69.296C56.3938 68.4213 57.1405 67.7493 58.1111 67.28C59.0925 66.8107 60.2605 66.576 61.6151 66.576C62.4685 66.576 63.2311 66.6613 63.9031 66.832C64.5858 67.0027 65.1565 67.2107 65.6151 67.456L65.6311 70.192H65.4871C65.1991 69.136 64.7298 68.384 64.0791 67.936C63.4285 67.4773 62.6658 67.248 61.7911 67.248C60.9378 67.248 60.2071 67.456 59.5991 67.872C58.9911 68.288 58.5218 68.8747 58.1911 69.632C57.8605 70.3893 57.6951 71.296 57.6951 72.352C57.6951 73.408 57.8498 74.32 58.1591 75.088C58.4791 75.856 58.9271 76.4533 59.5031 76.88C60.0898 77.3067 60.7778 77.5307 61.5671 77.552C62.3885 77.552 63.0818 77.4187 63.6471 77.152C64.2125 76.8853 64.6658 76.4427 65.0071 75.824C65.3591 75.2053 65.6205 74.3733 65.7911 73.328H65.9191ZM73.0155 66.48L78.2475 77.904H75.3675L72.0395 69.568L73.0155 66.48ZM69.5755 76.832C69.4902 77.0453 69.4742 77.2267 69.5275 77.376C69.5808 77.5253 69.6715 77.6427 69.7995 77.728C69.9275 77.8027 70.0555 77.84 70.1835 77.84H70.3275V78H66.9035V77.84C66.9035 77.84 66.9302 77.84 66.9835 77.84C67.0262 77.84 67.0475 77.84 67.0475 77.84C67.2928 77.84 67.5435 77.7653 67.7995 77.616C68.0662 77.456 68.2848 77.1947 68.4555 76.832H69.5755ZM73.0155 66.48L73.0795 68.432L69.1115 77.952H67.9435L72.0875 68.576C72.1195 68.512 72.1728 68.3947 72.2475 68.224C72.3328 68.0427 72.4182 67.84 72.5035 67.616C72.5995 67.392 72.6848 67.1787 72.7595 66.976C72.8342 66.7627 72.8715 66.5973 72.8715 66.48H73.0155ZM74.6955 74.192V74.864H69.9915V74.192H74.6955ZM74.9355 76.832H77.7355C77.9168 77.1947 78.1355 77.456 78.3915 77.616C78.6475 77.7653 78.8982 77.84 79.1435 77.84C79.1435 77.84 79.1648 77.84 79.2075 77.84C79.2502 77.84 79.2715 77.84 79.2715 77.84V78H74.1835V77.84H74.3275C74.5408 77.84 74.7275 77.7547 74.8875 77.584C75.0475 77.4027 75.0635 77.152 74.9355 76.832ZM85.8003 66.8C87.0589 66.8 88.1469 67.0293 89.0643 67.488C89.9816 67.936 90.6856 68.5813 91.1763 69.424C91.6776 70.256 91.9283 71.248 91.9283 72.4C91.9283 73.552 91.6776 74.5493 91.1763 75.392C90.6856 76.224 89.9816 76.8693 89.0643 77.328C88.1469 77.776 87.0589 78 85.8003 78H81.9923L81.9763 77.328C82.2856 77.328 82.6056 77.328 82.9363 77.328C83.2776 77.328 83.6083 77.328 83.9283 77.328C84.2483 77.328 84.5309 77.328 84.7763 77.328C85.0323 77.328 85.2349 77.328 85.3843 77.328C85.5336 77.328 85.6083 77.328 85.6083 77.328C86.3763 77.328 87.0376 77.1307 87.5923 76.736C88.1469 76.3307 88.5736 75.76 88.8723 75.024C89.1709 74.288 89.3203 73.4133 89.3203 72.4C89.3203 71.3867 89.1709 70.512 88.8723 69.776C88.5736 69.04 88.1469 68.4747 87.5923 68.08C87.0376 67.6747 86.3763 67.472 85.6083 67.472C85.6083 67.472 85.5283 67.472 85.3683 67.472C85.2189 67.472 85.0109 67.472 84.7443 67.472C84.4776 67.472 84.1789 67.472 83.8483 67.472C83.5176 67.472 83.1763 67.472 82.8243 67.472C82.4723 67.472 82.1363 67.472 81.8163 67.472V66.8H85.8003ZM83.6243 66.8V78H81.2243V66.8H83.6243ZM81.2723 76.832V78H79.9923V77.84C79.9923 77.84 80.0243 77.84 80.0883 77.84C80.1629 77.84 80.2003 77.84 80.2003 77.84C80.4776 77.84 80.7123 77.744 80.9043 77.552C81.1069 77.3493 81.2136 77.1093 81.2243 76.832H81.2723ZM81.2723 67.968H81.2243C81.2243 67.6907 81.1229 67.456 80.9203 67.264C80.7176 67.0613 80.4776 66.96 80.2003 66.96C80.2003 66.96 80.1683 66.96 80.1043 66.96C80.0403 66.96 80.0083 66.96 80.0083 66.96L79.9923 66.8H81.2723V67.968ZM97.0618 66.8V78H94.6618V66.8H97.0618ZM101.286 77.312L101.67 78H97.0138V77.312H101.286ZM100.694 72.144V72.816H97.0138V72.144H100.694ZM101.478 66.8V67.488H97.0138V66.8H101.478ZM102.454 74.72L101.718 78H98.5818L99.1578 77.312C99.6911 77.312 100.16 77.2107 100.566 77.008C100.971 76.7947 101.318 76.496 101.606 76.112C101.894 75.7173 102.123 75.2533 102.294 74.72H102.454ZM100.694 72.784V74.32H100.534V74.192C100.534 73.7973 100.406 73.472 100.15 73.216C99.8938 72.96 99.5684 72.8267 99.1738 72.816V72.784H100.694ZM100.694 70.64V72.176H99.1738V72.144C99.5684 72.1333 99.8938 72 100.15 71.744C100.406 71.4773 100.534 71.1467 100.534 70.752V70.64H100.694ZM101.478 67.44V69.312H101.318V69.12C101.318 68.6293 101.168 68.2347 100.87 67.936C100.582 67.6373 100.187 67.4827 99.6858 67.472V67.44H101.478ZM101.478 66.512V66.976L99.5258 66.8C99.7604 66.8 100.006 66.784 100.262 66.752C100.528 66.72 100.774 66.6827 100.998 66.64C101.222 66.5973 101.382 66.5547 101.478 66.512ZM94.7098 76.832V78H93.4298V77.84C93.4298 77.84 93.4618 77.84 93.5258 77.84C93.6004 77.84 93.6378 77.84 93.6378 77.84C93.9151 77.84 94.1498 77.744 94.3418 77.552C94.5444 77.3493 94.6511 77.1093 94.6618 76.832H94.7098ZM94.7098 67.968H94.6618C94.6511 67.6907 94.5444 67.456 94.3418 67.264C94.1498 67.0613 93.9151 66.96 93.6378 66.96C93.6378 66.96 93.6004 66.96 93.5258 66.96C93.4618 66.96 93.4298 66.96 93.4298 66.96V66.8H94.7098V67.968ZM115.847 66.576L115.975 68.32L111.223 76.56C111.223 76.56 111.17 76.656 111.063 76.848C110.956 77.0293 110.85 77.2533 110.743 77.52C110.647 77.7867 110.599 78.0533 110.599 78.32H110.439L109.815 76.928L115.847 66.576ZM104.999 76.832V78H103.223V77.84C103.234 77.84 103.282 77.84 103.367 77.84C103.442 77.84 103.479 77.84 103.479 77.84C103.767 77.84 104.023 77.7547 104.247 77.584C104.471 77.4027 104.604 77.152 104.647 76.832H104.999ZM105.703 77.088C105.703 77.0987 105.703 77.1093 105.703 77.12C105.703 77.1307 105.703 77.1467 105.703 77.168C105.703 77.3387 105.762 77.4987 105.879 77.648C106.007 77.7867 106.156 77.856 106.327 77.856H106.567V78H105.591V77.088H105.703ZM105.975 66.576H106.119L106.679 68.176L105.607 78H104.487L105.975 66.576ZM106.119 66.576L111.351 75.168L110.439 78.32L105.703 70.368L106.119 66.576ZM115.991 66.576L117.511 78H114.935L114.135 70.64L115.847 66.576H115.991ZM117.015 76.832H117.351C117.404 77.152 117.543 77.4027 117.767 77.584C117.991 77.7547 118.242 77.84 118.519 77.84C118.519 77.84 118.562 77.84 118.647 77.84C118.732 77.84 118.775 77.84 118.775 77.84V78H117.015V76.832ZM114.839 77.088H114.951V78H113.975V77.856H114.215C114.396 77.856 114.546 77.7867 114.663 77.648C114.78 77.4987 114.839 77.3387 114.839 77.168C114.839 77.1467 114.839 77.1307 114.839 77.12C114.839 77.1093 114.839 77.0987 114.839 77.088ZM122.119 66.816L125.399 72.768L123.127 72.992L119.383 66.816H122.119ZM125.479 72.848V78H123.079V72.848H125.479ZM128.055 66.816H129.303L125.319 73.168L124.503 73.008L128.055 66.816ZM127.399 67.952C127.495 67.8027 127.522 67.6533 127.479 67.504C127.436 67.344 127.356 67.216 127.239 67.12C127.122 67.0133 126.988 66.96 126.839 66.96C126.839 66.96 126.807 66.96 126.743 66.96C126.679 66.96 126.647 66.96 126.647 66.96V66.8H130.471V66.96H130.247C129.916 66.96 129.602 67.056 129.303 67.248C129.015 67.44 128.791 67.6587 128.631 67.904L127.399 67.952ZM122.743 67.952L120.039 67.904C119.89 67.6587 119.671 67.44 119.383 67.248C119.095 67.056 118.78 66.96 118.439 66.96H118.215V66.8H123.511V66.96C123.511 66.96 123.474 66.96 123.399 66.96C123.335 66.96 123.303 66.96 123.303 66.96C123.068 66.96 122.887 67.072 122.759 67.296C122.642 67.5093 122.636 67.728 122.743 67.952ZM123.127 76.832V78H121.847V77.84C121.847 77.84 121.879 77.84 121.943 77.84C122.007 77.84 122.044 77.84 122.055 77.84C122.332 77.84 122.567 77.744 122.759 77.552C122.962 77.3493 123.068 77.1093 123.079 76.832H123.127ZM125.431 76.832H125.479C125.479 77.1093 125.58 77.3493 125.783 77.552C125.986 77.744 126.226 77.84 126.503 77.84C126.503 77.84 126.535 77.84 126.599 77.84C126.663 77.84 126.695 77.84 126.695 77.84V78H125.431V76.832Z" fill="white"/>
<path d="M18.5504 90.8068V90.1818H22.914V90.8068H21.0845V96H20.3799V90.8068H18.5504ZM25.5014 96V90.1818H29.0127V90.8068H26.2059V92.7727H28.8309V93.3977H26.2059V95.375H29.0582V96H25.5014ZM32.0212 96H31.2826L33.419 90.1818H34.1462L36.2826 96H35.544L33.8053 91.1023H33.7599L32.0212 96ZM32.294 93.7273H35.2712V94.3523H32.294V93.7273ZM43.0972 92H42.3927C42.351 91.7973 42.2781 91.6193 42.1739 91.4659C42.0717 91.3125 41.9467 91.1837 41.7989 91.0795C41.6531 90.9735 41.4912 90.8939 41.3131 90.8409C41.1351 90.7879 40.9495 90.7614 40.7563 90.7614C40.4041 90.7614 40.0849 90.8504 39.7989 91.0284C39.5149 91.2064 39.2885 91.4688 39.12 91.8153C38.9533 92.1619 38.87 92.5871 38.87 93.0909C38.87 93.5947 38.9533 94.0199 39.12 94.3665C39.2885 94.7131 39.5149 94.9754 39.7989 95.1534C40.0849 95.3314 40.4041 95.4205 40.7563 95.4205C40.9495 95.4205 41.1351 95.3939 41.3131 95.3409C41.4912 95.2879 41.6531 95.2093 41.7989 95.1051C41.9467 94.9991 42.0717 94.8693 42.1739 94.7159C42.2781 94.5606 42.351 94.3826 42.3927 94.1818H43.0972C43.0442 94.4792 42.9476 94.7453 42.8075 94.9801C42.6673 95.215 42.4931 95.4148 42.2847 95.5795C42.0764 95.7424 41.8425 95.8665 41.583 95.9517C41.3255 96.0369 41.0499 96.0795 40.7563 96.0795C40.2601 96.0795 39.8188 95.9583 39.4325 95.7159C39.0461 95.4735 38.7421 95.1288 38.5205 94.6818C38.2989 94.2348 38.1881 93.7045 38.1881 93.0909C38.1881 92.4773 38.2989 91.947 38.5205 91.5C38.7421 91.053 39.0461 90.7083 39.4325 90.4659C39.8188 90.2235 40.2601 90.1023 40.7563 90.1023C41.0499 90.1023 41.3255 90.1449 41.583 90.2301C41.8425 90.3153 42.0764 90.4403 42.2847 90.6051C42.4931 90.768 42.6673 90.9669 42.8075 91.2017C42.9476 91.4347 43.0442 91.7008 43.0972 92ZM45.7357 96V90.1818H46.4403V92.7727H49.5426V90.1818H50.2471V96H49.5426V93.3977H46.4403V96H45.7357ZM53.1576 96V90.1818H56.669V90.8068H53.8622V92.7727H56.4872V93.3977H53.8622V95.375H56.7144V96H53.1576ZM59.4389 96V90.1818H61.4048C61.8593 90.1818 62.2324 90.2595 62.5241 90.4148C62.8158 90.5682 63.0317 90.7794 63.1718 91.0483C63.312 91.3172 63.382 91.6231 63.382 91.9659C63.382 92.3087 63.312 92.6127 63.1718 92.8778C63.0317 93.143 62.8167 93.3513 62.5269 93.5028C62.2372 93.6525 61.8669 93.7273 61.4161 93.7273H59.8252V93.0909H61.3934C61.704 93.0909 61.954 93.0455 62.1434 92.9545C62.3347 92.8636 62.473 92.7348 62.5582 92.5682C62.6453 92.3996 62.6889 92.1989 62.6889 91.9659C62.6889 91.733 62.6453 91.5294 62.5582 91.3551C62.4711 91.1809 62.3319 91.0464 62.1406 90.9517C61.9493 90.8551 61.6964 90.8068 61.382 90.8068H60.1434V96H59.4389ZM62.1775 93.3864L63.6093 96H62.7911L61.382 93.3864H62.1775ZM69.806 90.1818H70.647L72.6242 95.0114H72.6924L74.6697 90.1818H75.5106V96H74.8515V91.5795H74.7947L72.9765 96H72.3401L70.522 91.5795H70.4651V96H69.806V90.1818ZM83.3323 93.0909C83.3323 93.7045 83.2215 94.2348 82.9999 94.6818C82.7783 95.1288 82.4744 95.4735 82.088 95.7159C81.7016 95.9583 81.2604 96.0795 80.7641 96.0795C80.2679 96.0795 79.8266 95.9583 79.4403 95.7159C79.0539 95.4735 78.7499 95.1288 78.5283 94.6818C78.3068 94.2348 78.196 93.7045 78.196 93.0909C78.196 92.4773 78.3068 91.947 78.5283 91.5C78.7499 91.053 79.0539 90.7083 79.4403 90.4659C79.8266 90.2235 80.2679 90.1023 80.7641 90.1023C81.2604 90.1023 81.7016 90.2235 82.088 90.4659C82.4744 90.7083 82.7783 91.053 82.9999 91.5C83.2215 91.947 83.3323 92.4773 83.3323 93.0909ZM82.6505 93.0909C82.6505 92.5871 82.5662 92.1619 82.3977 91.8153C82.231 91.4688 82.0047 91.2064 81.7187 91.0284C81.4346 90.8504 81.1164 90.7614 80.7641 90.7614C80.4119 90.7614 80.0927 90.8504 79.8068 91.0284C79.5227 91.2064 79.2963 91.4688 79.1278 91.8153C78.9611 92.1619 78.8778 92.5871 78.8778 93.0909C78.8778 93.5947 78.9611 94.0199 79.1278 94.3665C79.2963 94.7131 79.5227 94.9754 79.8068 95.1534C80.0927 95.3314 80.4119 95.4205 80.7641 95.4205C81.1164 95.4205 81.4346 95.3314 81.7187 95.1534C82.0047 94.9754 82.231 94.7131 82.3977 94.3665C82.5662 94.0199 82.6505 93.5947 82.6505 93.0909ZM87.8124 96H86.017V90.1818H87.892C88.4564 90.1818 88.9393 90.2983 89.3408 90.5312C89.7424 90.7623 90.0501 91.0947 90.2641 91.5284C90.4782 91.9602 90.5852 92.4773 90.5852 93.0795C90.5852 93.6856 90.4772 94.2074 90.2613 94.6449C90.0454 95.0805 89.731 95.4157 89.3181 95.6506C88.9052 95.8835 88.4033 96 87.8124 96ZM86.7215 95.375H87.767C88.248 95.375 88.6467 95.2822 88.963 95.0966C89.2793 94.911 89.5151 94.6468 89.6704 94.304C89.8257 93.9612 89.9033 93.553 89.9033 93.0795C89.9033 92.6098 89.8266 92.2055 89.6732 91.8665C89.5198 91.5256 89.2907 91.2642 88.9857 91.0824C88.6808 90.8987 88.3011 90.8068 87.8465 90.8068H86.7215V95.375ZM97.0852 90.1818H97.7897V94.0341C97.7897 94.4318 97.696 94.7869 97.5085 95.0994C97.3229 95.41 97.0605 95.6553 96.7215 95.8352C96.3825 96.0133 95.9848 96.1023 95.5283 96.1023C95.0719 96.1023 94.6742 96.0133 94.3352 95.8352C93.9962 95.6553 93.7329 95.41 93.5454 95.0994C93.3598 94.7869 93.267 94.4318 93.267 94.0341V90.1818H93.9715V93.9773C93.9715 94.2614 94.034 94.5142 94.159 94.7358C94.284 94.9555 94.4621 95.1288 94.6931 95.2557C94.9261 95.3807 95.2045 95.4432 95.5283 95.4432C95.8522 95.4432 96.1306 95.3807 96.3636 95.2557C96.5965 95.1288 96.7746 94.9555 96.8977 94.7358C97.0227 94.5142 97.0852 94.2614 97.0852 93.9773V90.1818ZM100.697 96V90.1818H101.401V95.375H104.106V96H100.697ZM106.697 96V90.1818H110.208V90.8068H107.401V92.7727H110.026V93.3977H107.401V95.375H110.253V96H106.697Z" fill="#D4AF37"/>
<path d="M57.474 1.66666C57.474 1.66666 59.974 5.83333 59.974 9.16666C59.974 11.6667 58.724 13.3333 57.474 15C56.224 13.3333 54.974 11.6667 54.974 9.16666C54.974 5.83333 57.474 1.66666 57.474 1.66666Z" fill="url(#paint3_linear_281_6474)"/>
<path d="M39.6856 40.48L31.7415 23.344H36.0376L41.1736 35.848L39.6856 40.48ZM39.6856 40.48L39.6136 37.552L45.7096 23.272H47.4376L41.0776 37.336C41.0456 37.432 40.9656 37.616 40.8376 37.888C40.7256 38.144 40.5976 38.44 40.4536 38.776C40.3096 39.112 40.1816 39.44 40.0696 39.76C39.9736 40.064 39.9176 40.304 39.9016 40.48H39.6856ZM44.9896 24.952C45.1976 24.472 45.1736 24.104 44.9176 23.848C44.6616 23.576 44.3816 23.44 44.0775 23.44H43.8616V23.2H48.9976V23.44C48.9976 23.44 48.9576 23.44 48.8776 23.44C48.8136 23.44 48.7816 23.44 48.7816 23.44C48.4296 23.44 48.0536 23.56 47.6536 23.8C47.2696 24.024 46.9496 24.408 46.6936 24.952H44.9896ZM36.7096 24.952H32.4856C32.2296 24.408 31.9015 24.024 31.5015 23.8C31.1175 23.56 30.7415 23.44 30.3735 23.44C30.3735 23.44 30.3415 23.44 30.2775 23.44C30.2135 23.44 30.1815 23.44 30.1815 23.44V23.2H37.8136V23.44H37.5976C37.2936 23.44 37.0216 23.576 36.7816 23.848C36.5576 24.104 36.5336 24.472 36.7096 24.952Z" fill="url(#paint4_linear_281_6474)"/>
<path d="M54.1663 28.4V41H51.4663V28.4H54.1663ZM58.9183 40.226L59.3503 41H54.1123V40.226H58.9183ZM60.2323 37.31L59.4043 41H55.8763L56.5243 40.226C57.1243 40.226 57.6523 40.112 58.1083 39.884C58.5643 39.644 58.9543 39.308 59.2783 38.876C59.6023 38.432 59.8603 37.91 60.0523 37.31H60.2323ZM51.5203 39.686V41H50.0803V40.82C50.0803 40.82 50.1163 40.82 50.1883 40.82C50.2723 40.82 50.3143 40.82 50.3143 40.82C50.6263 40.82 50.8903 40.712 51.1063 40.496C51.3343 40.268 51.4543 39.998 51.4663 39.686H51.5203ZM51.5203 29.714H51.4663C51.4543 29.402 51.3343 29.138 51.1063 28.922C50.8903 28.694 50.6263 28.58 50.3143 28.58C50.3143 28.58 50.2723 28.58 50.1883 28.58C50.1163 28.58 50.0803 28.58 50.0803 28.58V28.4H51.5203V29.714ZM54.1123 29.714V28.4H55.5523V28.58C55.5403 28.58 55.4983 28.58 55.4263 28.58C55.3543 28.58 55.3183 28.58 55.3183 28.58C55.0063 28.58 54.7363 28.694 54.5083 28.922C54.2923 29.138 54.1783 29.402 54.1663 29.714H54.1123Z" fill="url(#paint5_linear_281_6474)"/>
<path d="M80.1565 22.864L80.3485 25.48L73.2205 37.84C73.2205 37.84 73.1405 37.984 72.9805 38.272C72.8205 38.544 72.6605 38.88 72.5005 39.28C72.3565 39.68 72.2845 40.08 72.2845 40.48H72.0445L71.1085 38.392L80.1565 22.864ZM63.8845 38.248V40H61.2205V39.76C61.2365 39.76 61.3085 39.76 61.4365 39.76C61.5485 39.76 61.6045 39.76 61.6045 39.76C62.0365 39.76 62.4205 39.632 62.7565 39.376C63.0925 39.104 63.2925 38.728 63.3565 38.248H63.8845ZM64.9405 38.632C64.9405 38.648 64.9405 38.664 64.9405 38.68C64.9405 38.696 64.9405 38.72 64.9405 38.752C64.9405 39.008 65.0285 39.248 65.2045 39.472C65.3965 39.68 65.6205 39.784 65.8765 39.784H66.2365V40H64.7725V38.632H64.9405ZM65.3485 22.864H65.5645L66.4045 25.264L64.7965 40H63.1165L65.3485 22.864ZM65.5645 22.864L73.4125 35.752L72.0445 40.48L64.9405 28.552L65.5645 22.864ZM80.3725 22.864L82.6525 40H78.7885L77.5885 28.96L80.1565 22.864H80.3725ZM81.9085 38.248H82.4125C82.4925 38.728 82.7005 39.104 83.0365 39.376C83.3725 39.632 83.7485 39.76 84.1645 39.76C84.1645 39.76 84.2285 39.76 84.3565 39.76C84.4845 39.76 84.5485 39.76 84.5485 39.76V40H81.9085V38.248ZM78.6445 38.632H78.8125V40H77.3485V39.784H77.7085C77.9805 39.784 78.2045 39.68 78.3805 39.472C78.5565 39.248 78.6445 39.008 78.6445 38.752C78.6445 38.72 78.6445 38.696 78.6445 38.68C78.6445 38.664 78.6445 38.648 78.6445 38.632Z" fill="url(#paint6_linear_281_6474)"/>
<defs>
<linearGradient id="paint0_linear_281_6474" x1="7.48784" y1="58" x2="7.48784" y2="85" gradientUnits="userSpaceOnUse">
<stop stop-color="white"/>
<stop offset="1" stop-color="#D4AF37"/>
</linearGradient>
<linearGradient id="paint1_linear_281_6474" x1="19.8349" y1="63" x2="19.8349" y2="82" gradientUnits="userSpaceOnUse">
<stop stop-color="white"/>
<stop offset="1" stop-color="#D4AF37"/>
</linearGradient>
<linearGradient id="paint2_linear_281_6474" x1="34.2361" y1="58" x2="34.2361" y2="85" gradientUnits="userSpaceOnUse">
<stop stop-color="white"/>
<stop offset="1" stop-color="#D4AF37"/>
</linearGradient>
<linearGradient id="paint3_linear_281_6474" x1="54.974" y1="1.66666" x2="931.686" y2="330.434" gradientUnits="userSpaceOnUse">
<stop stop-color="#FFF5C3"/>
<stop offset="0.5" stop-color="#D4AF37"/>
<stop offset="1" stop-color="#AA7A00"/>
</linearGradient>
<linearGradient id="paint4_linear_281_6474" x1="39.584" y1="15" x2="39.584" y2="51" gradientUnits="userSpaceOnUse">
<stop stop-color="#E5CE84"/>
<stop offset="1" stop-color="#7F7249"/>
</linearGradient>
<linearGradient id="paint5_linear_281_6474" x1="54.879" y1="23" x2="54.879" y2="48" gradientUnits="userSpaceOnUse">
<stop stop-color="#E5CE84"/>
<stop offset="1" stop-color="#7F7249"/>
</linearGradient>
<linearGradient id="paint6_linear_281_6474" x1="72.874" y1="15" x2="72.874" y2="51" gradientUnits="userSpaceOnUse">
<stop stop-color="#E5CE84"/>
<stop offset="1" stop-color="#7F7249"/>
</linearGradient>
</defs>
</svg>
