<svg width="163" height="36" viewBox="0 0 163 36" fill="none" xmlns="http://www.w3.org/2000/svg">
<path d="M57.29 16.3L52.325 5.59H55.01L58.22 13.405L57.29 16.3ZM57.29 16.3L57.245 14.47L61.055 5.545H62.135L58.16 14.335C58.14 14.395 58.09 14.51 58.01 14.68C57.94 14.84 57.86 15.025 57.77 15.235C57.68 15.445 57.6 15.65 57.53 15.85C57.47 16.04 57.435 16.19 57.425 16.3H57.29ZM60.605 6.595C60.735 6.295 60.72 6.065 60.56 5.905C60.4 5.735 60.225 5.65 60.035 5.65H59.9V5.5H63.11V5.65C63.11 5.65 63.085 5.65 63.035 5.65C62.995 5.65 62.975 5.65 62.975 5.65C62.755 5.65 62.52 5.725 62.27 5.875C62.03 6.015 61.83 6.255 61.67 6.595H60.605ZM55.43 6.595H52.79C52.63 6.255 52.425 6.015 52.175 5.875C51.935 5.725 51.7 5.65 51.47 5.65C51.47 5.65 51.45 5.65 51.41 5.65C51.37 5.65 51.35 5.65 51.35 5.65V5.5H56.12V5.65H55.985C55.795 5.65 55.625 5.735 55.475 5.905C55.335 6.065 55.32 6.295 55.43 6.595ZM66.7181 5.5V16H64.4681V5.5H66.7181ZM70.6781 15.355L71.0381 16H66.6731V15.355H70.6781ZM71.7731 12.925L71.0831 16H68.1431L68.6831 15.355C69.1831 15.355 69.6231 15.26 70.0031 15.07C70.3831 14.87 70.7081 14.59 70.9781 14.23C71.2481 13.86 71.4631 13.425 71.6231 12.925H71.7731ZM64.5131 14.905V16H63.3131V15.85C63.3131 15.85 63.3431 15.85 63.4031 15.85C63.4731 15.85 63.5081 15.85 63.5081 15.85C63.7681 15.85 63.9881 15.76 64.1681 15.58C64.3581 15.39 64.4581 15.165 64.4681 14.905H64.5131ZM64.5131 6.595H64.4681C64.4581 6.335 64.3581 6.115 64.1681 5.935C63.9881 5.745 63.7681 5.65 63.5081 5.65C63.5081 5.65 63.4731 5.65 63.4031 5.65C63.3431 5.65 63.3131 5.65 63.3131 5.65V5.5H64.5131V6.595ZM66.6731 6.595V5.5H67.8731V5.65C67.8631 5.65 67.8281 5.65 67.7681 5.65C67.7081 5.65 67.6781 5.65 67.6781 5.65C67.4181 5.65 67.1931 5.745 67.0031 5.935C66.8231 6.115 66.7281 6.335 66.7181 6.595H66.6731ZM83.6409 5.29L83.7609 6.925L79.3059 14.65C79.3059 14.65 79.2559 14.74 79.1559 14.92C79.0559 15.09 78.9559 15.3 78.8559 15.55C78.7659 15.8 78.7209 16.05 78.7209 16.3H78.5709L77.9859 14.995L83.6409 5.29ZM73.4709 14.905V16H71.8059V15.85C71.8159 15.85 71.8609 15.85 71.9409 15.85C72.0109 15.85 72.0459 15.85 72.0459 15.85C72.3159 15.85 72.5559 15.77 72.7659 15.61C72.9759 15.44 73.1009 15.205 73.1409 14.905H73.4709ZM74.1309 15.145C74.1309 15.155 74.1309 15.165 74.1309 15.175C74.1309 15.185 74.1309 15.2 74.1309 15.22C74.1309 15.38 74.1859 15.53 74.2959 15.67C74.4159 15.8 74.5559 15.865 74.7159 15.865H74.9409V16H74.0259V15.145H74.1309ZM74.3859 5.29H74.5209L75.0459 6.79L74.0409 16H72.9909L74.3859 5.29ZM74.5209 5.29L79.4259 13.345L78.5709 16.3L74.1309 8.845L74.5209 5.29ZM83.7759 5.29L85.2009 16H82.7859L82.0359 9.1L83.6409 5.29H83.7759ZM84.7359 14.905H85.0509C85.1009 15.205 85.2309 15.44 85.4409 15.61C85.6509 15.77 85.8859 15.85 86.1459 15.85C86.1459 15.85 86.1859 15.85 86.2659 15.85C86.3459 15.85 86.3859 15.85 86.3859 15.85V16H84.7359V14.905ZM82.6959 15.145H82.8009V16H81.8859V15.865H82.1109C82.2809 15.865 82.4209 15.8 82.5309 15.67C82.6409 15.53 82.6959 15.38 82.6959 15.22C82.6959 15.2 82.6959 15.185 82.6959 15.175C82.6959 15.165 82.6959 15.155 82.6959 15.145ZM95.2978 5.2L100.203 15.91H97.5028L94.3828 8.095L95.2978 5.2ZM92.0728 14.905C91.9928 15.105 91.9778 15.275 92.0278 15.415C92.0778 15.555 92.1628 15.665 92.2828 15.745C92.4028 15.815 92.5228 15.85 92.6428 15.85H92.7778V16H89.5678V15.85C89.5678 15.85 89.5928 15.85 89.6428 15.85C89.6828 15.85 89.7028 15.85 89.7028 15.85C89.9328 15.85 90.1678 15.78 90.4078 15.64C90.6578 15.49 90.8628 15.245 91.0228 14.905H92.0728ZM95.2978 5.2L95.3578 7.03L91.6378 15.955H90.5428L94.4278 7.165C94.4578 7.105 94.5078 6.995 94.5778 6.835C94.6578 6.665 94.7378 6.475 94.8178 6.265C94.9078 6.055 94.9878 5.855 95.0578 5.665C95.1278 5.465 95.1628 5.31 95.1628 5.2H95.2978ZM96.8728 12.43V13.06H92.4628V12.43H96.8728ZM97.0978 14.905H99.7228C99.8928 15.245 100.098 15.49 100.338 15.64C100.578 15.78 100.813 15.85 101.043 15.85C101.043 15.85 101.063 15.85 101.103 15.85C101.143 15.85 101.163 15.85 101.163 15.85V16H96.3928V15.85H96.5278C96.7278 15.85 96.9028 15.77 97.0528 15.61C97.2028 15.44 97.2178 15.205 97.0978 14.905ZM109.957 12.235L110.122 14.5C109.932 14.82 109.667 15.11 109.327 15.37C108.987 15.62 108.572 15.82 108.082 15.97C107.592 16.12 107.022 16.195 106.372 16.195C105.252 16.185 104.287 15.995 103.477 15.625C102.667 15.255 102.042 14.725 101.602 14.035C101.172 13.335 100.957 12.485 100.957 11.485C100.957 10.505 101.172 9.67 101.602 8.98C102.032 8.28 102.652 7.745 103.462 7.375C104.272 6.995 105.242 6.805 106.372 6.805C107.052 6.805 107.682 6.87 108.262 7C108.852 7.13 109.342 7.295 109.732 7.495L109.747 9.88H109.627C109.377 8.96 108.982 8.315 108.442 7.945C107.902 7.575 107.262 7.39 106.522 7.39C105.792 7.39 105.182 7.56 104.692 7.9C104.212 8.24 103.847 8.715 103.597 9.325C103.357 9.935 103.237 10.65 103.237 11.47C103.237 12.3 103.357 13.02 103.597 13.63C103.847 14.24 104.207 14.715 104.677 15.055C105.147 15.395 105.712 15.575 106.372 15.595C107.082 15.595 107.667 15.485 108.127 15.265C108.597 15.045 108.967 14.69 109.237 14.2C109.517 13.71 109.717 13.055 109.837 12.235H109.957ZM115.603 6.595L120.043 15.925H117.508L114.718 9.34L115.603 6.595ZM112.783 15.01C112.673 15.28 112.688 15.49 112.828 15.64C112.968 15.78 113.123 15.85 113.293 15.85H113.413V16H110.413V15.85C110.413 15.85 110.433 15.85 110.473 15.85C110.513 15.85 110.533 15.85 110.533 15.85C110.733 15.85 110.943 15.79 111.163 15.67C111.383 15.54 111.563 15.32 111.703 15.01H112.783ZM115.603 6.595L115.633 8.395L112.378 15.955H111.268L114.778 8.41C114.798 8.35 114.843 8.245 114.913 8.095C114.983 7.935 115.058 7.76 115.138 7.57C115.218 7.37 115.293 7.185 115.363 7.015C115.433 6.835 115.473 6.695 115.483 6.595H115.603ZM116.908 13.06V13.645H113.083V13.06H116.908ZM117.133 15.01H119.608C119.758 15.32 119.943 15.54 120.163 15.67C120.383 15.79 120.593 15.85 120.793 15.85C120.793 15.85 120.813 15.85 120.853 15.85C120.893 15.85 120.913 15.85 120.913 15.85V16H116.503V15.85H116.623C116.793 15.85 116.948 15.78 117.088 15.64C117.228 15.49 117.243 15.28 117.133 15.01ZM126.036 7C127.106 7 128.026 7.18 128.796 7.54C129.566 7.89 130.156 8.405 130.566 9.085C130.976 9.755 131.181 10.56 131.181 11.5C131.181 12.44 130.976 13.245 130.566 13.915C130.156 14.585 129.566 15.1 128.796 15.46C128.026 15.82 127.106 16 126.036 16H122.706L122.676 15.4C123.436 15.4 124.046 15.4 124.506 15.4C124.976 15.4 125.316 15.4 125.526 15.4C125.746 15.4 125.856 15.4 125.856 15.4C126.796 15.4 127.536 15.055 128.076 14.365C128.616 13.675 128.886 12.72 128.886 11.5C128.886 10.28 128.616 9.325 128.076 8.635C127.536 7.935 126.796 7.585 125.856 7.585C125.856 7.585 125.746 7.585 125.526 7.585C125.306 7.585 124.951 7.585 124.461 7.585C123.971 7.585 123.326 7.585 122.526 7.585V7H126.036ZM124.161 7V16H122.001V7H124.161ZM122.046 15.04V16H120.966V15.85C120.966 15.85 120.996 15.85 121.056 15.85C121.116 15.85 121.151 15.85 121.161 15.85C121.391 15.85 121.586 15.77 121.746 15.61C121.916 15.45 122.001 15.26 122.001 15.04H122.046ZM122.031 7.945H122.001C121.991 7.715 121.901 7.525 121.731 7.375C121.571 7.225 121.376 7.15 121.146 7.15C121.146 7.15 121.116 7.15 121.056 7.15C120.996 7.15 120.966 7.15 120.966 7.15V7H122.031V7.945ZM135.191 7V16H133.031V7H135.191ZM138.701 15.4L139.046 16H135.161V15.4H138.701ZM138.191 11.245V11.845H135.161V11.245H138.191ZM138.866 7V7.6H135.161V7H138.866ZM139.661 13.24L139.091 16H136.496L136.961 15.4C137.391 15.4 137.771 15.315 138.101 15.145C138.441 14.965 138.731 14.715 138.971 14.395C139.211 14.065 139.396 13.68 139.526 13.24H139.661ZM138.191 11.815V13.135H138.041V13.015C138.041 12.685 137.936 12.41 137.726 12.19C137.526 11.97 137.251 11.855 136.901 11.845V11.815H138.191ZM138.191 9.955V11.275H136.901V11.245C137.251 11.235 137.526 11.12 137.726 10.9C137.936 10.67 138.041 10.39 138.041 10.06V9.955H138.191ZM138.866 7.57V9.16H138.716V9.025C138.716 8.585 138.596 8.24 138.356 7.99C138.126 7.74 137.791 7.61 137.351 7.6V7.57H138.866ZM138.866 6.775V7.135L137.291 7C137.581 7 137.886 6.975 138.206 6.925C138.526 6.865 138.746 6.815 138.866 6.775ZM133.061 15.055L133.136 16H132.026V15.85C132.026 15.85 132.056 15.85 132.116 15.85C132.176 15.85 132.211 15.85 132.221 15.85C132.441 15.85 132.626 15.775 132.776 15.625C132.936 15.465 133.021 15.275 133.031 15.055H133.061ZM133.061 7.945H133.031C133.021 7.715 132.936 7.525 132.776 7.375C132.626 7.225 132.441 7.15 132.221 7.15C132.211 7.15 132.176 7.15 132.116 7.15C132.056 7.15 132.026 7.15 132.026 7.15V7H133.136L133.061 7.945ZM150.558 6.805L150.678 8.35L146.643 14.755C146.643 14.755 146.598 14.84 146.508 15.01C146.418 15.17 146.328 15.365 146.238 15.595C146.158 15.825 146.113 16.055 146.103 16.285H145.968L145.383 15.055L150.558 6.805ZM141.333 15.04V16H139.863V15.85C139.863 15.85 139.898 15.85 139.968 15.85C140.028 15.85 140.058 15.85 140.058 15.85C140.308 15.85 140.523 15.78 140.703 15.64C140.893 15.5 141.008 15.3 141.048 15.04H141.333ZM141.978 15.25C141.968 15.36 142.003 15.49 142.083 15.64C142.163 15.78 142.303 15.85 142.503 15.85H142.713V16H141.813L141.903 15.25H141.978ZM142.218 6.805H142.338L142.848 8.245L141.903 16H140.928L142.218 6.805ZM142.338 6.805L146.778 13.45L145.968 16.285L141.978 10.24L142.338 6.805ZM150.693 6.805L152.013 16H149.718L148.983 10.525L150.558 6.805H150.693ZM151.593 15.04H151.878C151.928 15.3 152.043 15.5 152.223 15.64C152.413 15.78 152.623 15.85 152.853 15.85C152.853 15.85 152.888 15.85 152.958 15.85C153.028 15.85 153.063 15.85 153.063 15.85V16H151.593V15.04ZM149.613 15.25H149.703L149.793 16H148.893V15.85H149.103C149.323 15.85 149.468 15.78 149.538 15.64C149.608 15.49 149.633 15.36 149.613 15.25ZM155.608 7.015L158.428 11.89L156.433 12.115L153.148 7.015H155.608ZM158.518 11.92V16H156.358V11.95L158.518 11.92ZM160.648 7.015H161.758L158.368 12.22L157.663 12.085L160.648 7.015ZM160.108 7.93C160.218 7.74 160.218 7.565 160.108 7.405C159.998 7.235 159.848 7.15 159.658 7.15C159.658 7.15 159.628 7.15 159.568 7.15C159.508 7.15 159.478 7.15 159.478 7.15V7H162.703V7.15H162.508C162.238 7.15 161.983 7.225 161.743 7.375C161.513 7.515 161.328 7.685 161.188 7.885L160.108 7.93ZM156.133 7.93L153.703 7.885C153.563 7.675 153.378 7.5 153.148 7.36C152.918 7.22 152.663 7.15 152.383 7.15H152.203V7H156.763V7.15C156.763 7.15 156.733 7.15 156.673 7.15C156.623 7.15 156.598 7.15 156.598 7.15C156.398 7.15 156.243 7.235 156.133 7.405C156.033 7.575 156.033 7.75 156.133 7.93ZM156.403 15.055V16H155.338V15.85C155.348 15.85 155.378 15.85 155.428 15.85C155.488 15.85 155.518 15.85 155.518 15.85C155.748 15.85 155.943 15.775 156.103 15.625C156.263 15.465 156.348 15.275 156.358 15.055H156.403ZM158.488 15.055H158.518C158.528 15.275 158.613 15.465 158.773 15.625C158.943 15.775 159.138 15.85 159.358 15.85C159.358 15.85 159.388 15.85 159.448 15.85C159.508 15.85 159.538 15.85 159.538 15.85V16H158.488V15.055Z" fill="white"/>
<path d="M52.2047 26.6577V25.9545H57.1138V26.6577H55.0555V32.5H54.2629V26.6577H52.2047ZM60.0811 32.6023C59.6081 32.6023 59.2001 32.4979 58.857 32.2891C58.5161 32.0781 58.253 31.7841 58.0676 31.407C57.8844 31.0277 57.7927 30.5866 57.7927 30.0838C57.7927 29.581 57.8844 29.1378 58.0676 28.7543C58.253 28.3686 58.5108 28.0682 58.841 27.853C59.1734 27.6357 59.5612 27.527 60.0044 27.527C60.2601 27.527 60.5126 27.5696 60.7619 27.6548C61.0111 27.7401 61.2381 27.8786 61.4426 28.0703C61.6472 28.2599 61.8101 28.5114 61.9316 28.8246C62.053 29.1378 62.1138 29.5234 62.1138 29.9815V30.3011H58.3297V29.6491H61.3467C61.3467 29.3722 61.2913 29.125 61.1805 28.9077C61.0719 28.6903 60.9163 28.5188 60.7139 28.3931C60.5136 28.2674 60.2771 28.2045 60.0044 28.2045C59.704 28.2045 59.444 28.2791 59.2246 28.4283C59.0072 28.5753 58.84 28.767 58.7228 29.0036C58.6056 29.2401 58.547 29.4936 58.547 29.7642V30.1989C58.547 30.5696 58.6109 30.8839 58.7388 31.1417C58.8687 31.3974 59.0488 31.5923 59.2789 31.7266C59.509 31.8587 59.7764 31.9247 60.0811 31.9247C60.2793 31.9247 60.4582 31.897 60.618 31.8416C60.78 31.7841 60.9195 31.6989 61.0367 31.5859C61.1539 31.4709 61.2445 31.3281 61.3084 31.1577L62.0371 31.3622C61.9604 31.6094 61.8315 31.8267 61.6503 32.0142C61.4692 32.1996 61.2455 32.3445 60.9792 32.4489C60.7128 32.5511 60.4135 32.6023 60.0811 32.6023ZM65.2057 32.6151C64.8947 32.6151 64.6123 32.5565 64.3588 32.4393C64.1052 32.32 63.9039 32.1484 63.7547 31.9247C63.6056 31.6989 63.531 31.4261 63.531 31.1065C63.531 30.8253 63.5864 30.5973 63.6972 30.4226C63.808 30.2457 63.9561 30.1072 64.1415 30.0071C64.3268 29.907 64.5314 29.8324 64.7551 29.7834C64.981 29.7322 65.2079 29.6918 65.4359 29.6619C65.7342 29.6236 65.976 29.5948 66.1614 29.5756C66.3489 29.5543 66.4852 29.5192 66.5704 29.4702C66.6578 29.4212 66.7015 29.3359 66.7015 29.2145V29.1889C66.7015 28.8736 66.6152 28.6286 66.4426 28.4538C66.2722 28.2791 66.0133 28.1918 65.666 28.1918C65.3059 28.1918 65.0236 28.2706 64.819 28.4283C64.6145 28.5859 64.4707 28.7543 64.3876 28.9332L63.6717 28.6776C63.7995 28.3793 63.9699 28.147 64.183 27.9808C64.3982 27.8125 64.6326 27.6953 64.8861 27.6293C65.1418 27.5611 65.3932 27.527 65.6404 27.527C65.7981 27.527 65.9792 27.5462 66.1837 27.5845C66.3904 27.6207 66.5896 27.6964 66.7814 27.8114C66.9753 27.9265 67.1361 28.1001 67.264 28.3324C67.3918 28.5646 67.4557 28.8757 67.4557 29.2656V32.5H66.7015V31.8352H66.6631C66.612 31.9418 66.5268 32.0558 66.4074 32.1772C66.2881 32.2987 66.1294 32.402 65.9312 32.4872C65.7331 32.5724 65.4913 32.6151 65.2057 32.6151ZM65.3208 31.9375C65.6191 31.9375 65.8705 31.8789 66.0751 31.7617C66.2817 31.6445 66.4373 31.4933 66.5417 31.3079C66.6482 31.1225 66.7015 30.9276 66.7015 30.723V30.0327C66.6695 30.071 66.5992 30.1062 66.4905 30.1381C66.384 30.168 66.2604 30.1946 66.1198 30.218C65.9813 30.2393 65.846 30.2585 65.7139 30.2756C65.5839 30.2905 65.4785 30.3033 65.3975 30.3139C65.2015 30.3395 65.0182 30.381 64.8478 30.4386C64.6795 30.494 64.5431 30.5781 64.4387 30.6911C64.3364 30.8018 64.2853 30.9531 64.2853 31.1449C64.2853 31.407 64.3822 31.6051 64.5761 31.7393C64.7722 31.8714 65.0204 31.9375 65.3208 31.9375ZM71.3267 32.6023C70.8665 32.6023 70.4702 32.4936 70.1378 32.2763C69.8054 32.0589 69.5498 31.7596 69.3708 31.3782C69.1918 30.9968 69.1023 30.5611 69.1023 30.071C69.1023 29.5724 69.1939 29.1325 69.3772 28.7511C69.5625 28.3675 69.8204 28.0682 70.1506 27.853C70.483 27.6357 70.8708 27.527 71.314 27.527C71.6591 27.527 71.9702 27.5909 72.2472 27.7188C72.5242 27.8466 72.7511 28.0256 72.928 28.2557C73.1048 28.4858 73.2145 28.7543 73.2571 29.0611H72.5029C72.4454 28.8374 72.3175 28.6392 72.1194 28.4666C71.9233 28.2919 71.6591 28.2045 71.3267 28.2045C71.0327 28.2045 70.7749 28.2812 70.5533 28.4347C70.3339 28.5859 70.1623 28.8001 70.0388 29.0771C69.9173 29.3519 69.8566 29.6747 69.8566 30.0455C69.8566 30.4247 69.9162 30.755 70.0356 31.0362C70.157 31.3175 70.3275 31.5359 70.5469 31.6914C70.7685 31.8469 71.0285 31.9247 71.3267 31.9247C71.5228 31.9247 71.7007 31.8906 71.8605 31.8224C72.0203 31.7543 72.1556 31.6562 72.2664 31.5284C72.3772 31.4006 72.456 31.2472 72.5029 31.0682H73.2571C73.2145 31.358 73.1091 31.619 72.9407 31.8512C72.7745 32.0813 72.554 32.2646 72.2792 32.4009C72.0064 32.5352 71.689 32.6023 71.3267 32.6023ZM75.614 29.5469V32.5H74.8598V25.9545H75.614V28.358H75.678C75.793 28.1044 75.9656 27.9031 76.1957 27.7539C76.428 27.6026 76.7369 27.527 77.1226 27.527C77.4571 27.527 77.75 27.5941 78.0015 27.7283C78.2529 27.8604 78.4478 28.0639 78.5863 28.3388C78.727 28.6115 78.7973 28.9588 78.7973 29.3807V32.5H78.043V29.4318C78.043 29.0419 77.9418 28.7404 77.7394 28.5273C77.5391 28.3121 77.2611 28.2045 76.9052 28.2045C76.6581 28.2045 76.4365 28.2567 76.2405 28.3612C76.0466 28.4656 75.8932 28.6179 75.7802 28.8182C75.6694 29.0185 75.614 29.2614 75.614 29.5469ZM82.7354 32.6023C82.2624 32.6023 81.8544 32.4979 81.5113 32.2891C81.1704 32.0781 80.9073 31.7841 80.7219 31.407C80.5387 31.0277 80.447 30.5866 80.447 30.0838C80.447 29.581 80.5387 29.1378 80.7219 28.7543C80.9073 28.3686 81.1651 28.0682 81.4953 27.853C81.8277 27.6357 82.2155 27.527 82.6587 27.527C82.9144 27.527 83.1669 27.5696 83.4161 27.6548C83.6654 27.7401 83.8924 27.8786 84.0969 28.0703C84.3014 28.2599 84.4644 28.5114 84.5859 28.8246C84.7073 29.1378 84.7681 29.5234 84.7681 29.9815V30.3011H80.984V29.6491H84.001C84.001 29.3722 83.9456 29.125 83.8348 28.9077C83.7262 28.6903 83.5706 28.5188 83.3682 28.3931C83.1679 28.2674 82.9314 28.2045 82.6587 28.2045C82.3583 28.2045 82.0983 28.2791 81.8789 28.4283C81.6615 28.5753 81.4943 28.767 81.3771 29.0036C81.2599 29.2401 81.2013 29.4936 81.2013 29.7642V30.1989C81.2013 30.5696 81.2652 30.8839 81.3931 31.1417C81.523 31.3974 81.7031 31.5923 81.9332 31.7266C82.1633 31.8587 82.4307 31.9247 82.7354 31.9247C82.9335 31.9247 83.1125 31.897 83.2723 31.8416C83.4343 31.7841 83.5738 31.6989 83.691 31.5859C83.8082 31.4709 83.8987 31.3281 83.9627 31.1577L84.6914 31.3622C84.6147 31.6094 84.4858 31.8267 84.3046 32.0142C84.1235 32.1996 83.8998 32.3445 83.6335 32.4489C83.3671 32.5511 83.0678 32.6023 82.7354 32.6023ZM86.4154 32.5V27.5909H87.1441V28.3324H87.1953C87.2848 28.0895 87.4467 27.8924 87.6811 27.7411C87.9154 27.5898 88.1796 27.5142 88.4737 27.5142C88.5291 27.5142 88.5983 27.5153 88.6814 27.5174C88.7645 27.5195 88.8274 27.5227 88.87 27.527V28.294C88.8444 28.2876 88.7858 28.2781 88.6942 28.2653C88.6047 28.2504 88.5099 28.2429 88.4098 28.2429C88.1711 28.2429 87.9581 28.293 87.7706 28.3931C87.5852 28.4911 87.4382 28.6275 87.3295 28.8022C87.223 28.9748 87.1697 29.1719 87.1697 29.3935V32.5H86.4154ZM93.6661 32.5H92.8351L95.2385 25.9545H96.0567L98.4601 32.5H97.6291L95.6732 26.9901H95.622L93.6661 32.5ZM93.9729 29.9432H97.3223V30.6463H93.9729V29.9432ZM99.8774 34.3409V27.5909H100.606V28.3707H100.696C100.751 28.2855 100.828 28.1768 100.926 28.0447C101.026 27.9105 101.169 27.7912 101.354 27.6868C101.541 27.5803 101.795 27.527 102.115 27.527C102.528 27.527 102.892 27.6303 103.208 27.837C103.523 28.0437 103.769 28.3366 103.946 28.7159C104.123 29.0952 104.211 29.5426 104.211 30.0582C104.211 30.5781 104.123 31.0288 103.946 31.4102C103.769 31.7894 103.524 32.0835 103.211 32.2923C102.898 32.4989 102.536 32.6023 102.127 32.6023C101.812 32.6023 101.56 32.5501 101.37 32.4457C101.18 32.3391 101.034 32.2187 100.932 32.0845C100.83 31.9482 100.751 31.8352 100.696 31.7457H100.632V34.3409H99.8774ZM100.619 30.0455C100.619 30.4162 100.673 30.7433 100.782 31.0266C100.89 31.3079 101.049 31.5284 101.258 31.6882C101.467 31.8459 101.723 31.9247 102.025 31.9247C102.34 31.9247 102.604 31.8416 102.814 31.6754C103.028 31.5071 103.187 31.2812 103.294 30.9979C103.403 30.7124 103.457 30.3949 103.457 30.0455C103.457 29.7003 103.404 29.3892 103.297 29.1122C103.193 28.8331 103.034 28.6126 102.821 28.4506C102.61 28.2866 102.345 28.2045 102.025 28.2045C101.718 28.2045 101.46 28.2823 101.252 28.4379C101.043 28.5913 100.885 28.8065 100.779 29.0835C100.672 29.3583 100.619 29.679 100.619 30.0455ZM105.862 34.3409V27.5909H106.59V28.3707H106.68C106.735 28.2855 106.812 28.1768 106.91 28.0447C107.01 27.9105 107.153 27.7912 107.338 27.6868C107.526 27.5803 107.779 27.527 108.099 27.527C108.512 27.527 108.877 27.6303 109.192 27.837C109.507 28.0437 109.753 28.3366 109.93 28.7159C110.107 29.0952 110.196 29.5426 110.196 30.0582C110.196 30.5781 110.107 31.0288 109.93 31.4102C109.753 31.7894 109.508 32.0835 109.195 32.2923C108.882 32.4989 108.521 32.6023 108.112 32.6023C107.796 32.6023 107.544 32.5501 107.354 32.4457C107.165 32.3391 107.019 32.2187 106.916 32.0845C106.814 31.9482 106.735 31.8352 106.68 31.7457H106.616V34.3409H105.862ZM106.603 30.0455C106.603 30.4162 106.658 30.7433 106.766 31.0266C106.875 31.3079 107.034 31.5284 107.242 31.6882C107.451 31.8459 107.707 31.9247 108.009 31.9247C108.325 31.9247 108.588 31.8416 108.799 31.6754C109.012 31.5071 109.172 31.2812 109.278 30.9979C109.387 30.7124 109.441 30.3949 109.441 30.0455C109.441 29.7003 109.388 29.3892 109.281 29.1122C109.177 28.8331 109.018 28.6126 108.805 28.4506C108.594 28.2866 108.329 28.2045 108.009 28.2045C107.703 28.2045 107.445 28.2823 107.236 28.4379C107.027 28.5913 106.87 28.8065 106.763 29.0835C106.656 29.3583 106.603 29.679 106.603 30.0455Z" fill="#8BA7E8"/>
<path d="M11.5986 3.05468C11.5986 3.05468 13.1806 5.69138 13.1806 7.80075C13.1806 9.38277 12.3896 10.4375 11.5986 11.4921C10.8076 10.4375 10.0166 9.38277 10.0166 7.80075C10.0166 5.69138 11.5986 3.05468 11.5986 3.05468Z" fill="url(#paint0_linear_8_63)"/>
<path d="M5.32839 22.7321L1.35639 14.1641H3.50439L6.07239 20.4161L5.32839 22.7321ZM5.32839 22.7321L5.29239 21.2681L8.34039 14.1281H9.20439L6.02439 21.1601C6.00839 21.2081 5.96839 21.3001 5.90439 21.4361C5.84839 21.5641 5.78439 21.7121 5.71239 21.8801C5.64039 22.0481 5.57639 22.2121 5.52039 22.3721C5.47239 22.5241 5.44439 22.6441 5.43639 22.7321H5.32839ZM7.98039 14.9681C8.08439 14.7281 8.07239 14.5441 7.94439 14.4161C7.81639 14.2801 7.67639 14.2121 7.52439 14.2121H7.41639V14.0921H9.98439V14.2121C9.98439 14.2121 9.96439 14.2121 9.92439 14.2121C9.89239 14.2121 9.87639 14.2121 9.87639 14.2121C9.70039 14.2121 9.51239 14.2721 9.31239 14.3921C9.12039 14.5041 8.96039 14.6961 8.83239 14.9681H7.98039ZM3.84039 14.9681H1.72839C1.60039 14.6961 1.43639 14.5041 1.23639 14.3921C1.04439 14.2721 0.856393 14.2121 0.672393 14.2121C0.672393 14.2121 0.656393 14.2121 0.624393 14.2121C0.592393 14.2121 0.576393 14.2121 0.576393 14.2121V14.0921H4.39239V14.2121H4.28439C4.13239 14.2121 3.99639 14.2801 3.87639 14.4161C3.76439 14.5441 3.75239 14.7281 3.84039 14.9681Z" fill="url(#paint1_linear_8_63)"/>
<path d="M12.4215 16.5546V23.5546H10.9215V16.5546H12.4215ZM15.0615 23.1246L15.3015 23.5546H12.3915V23.1246H15.0615ZM15.7915 21.5046L15.3315 23.5546H13.3715L13.7315 23.1246C14.0648 23.1246 14.3582 23.0613 14.6115 22.9346C14.8648 22.8013 15.0815 22.6146 15.2615 22.3746C15.4415 22.1279 15.5848 21.8379 15.6915 21.5046H15.7915ZM10.9515 22.8246V23.5546H10.1515V23.4546C10.1515 23.4546 10.1715 23.4546 10.2115 23.4546C10.2582 23.4546 10.2815 23.4546 10.2815 23.4546C10.4548 23.4546 10.6015 23.3946 10.7215 23.2746C10.8482 23.1479 10.9148 22.9979 10.9215 22.8246H10.9515ZM10.9515 17.2846H10.9215C10.9148 17.1113 10.8482 16.9646 10.7215 16.8446C10.6015 16.7179 10.4548 16.6546 10.2815 16.6546C10.2815 16.6546 10.2582 16.6546 10.2115 16.6546C10.1715 16.6546 10.1515 16.6546 10.1515 16.6546V16.5546H10.9515V17.2846ZM12.3915 17.2846V16.5546H13.1915V16.6546C13.1848 16.6546 13.1615 16.6546 13.1215 16.6546C13.0815 16.6546 13.0615 16.6546 13.0615 16.6546C12.8882 16.6546 12.7382 16.7179 12.6115 16.8446C12.4915 16.9646 12.4282 17.1113 12.4215 17.2846H12.3915Z" fill="url(#paint2_linear_8_63)"/>
<path d="M25.7071 13.9241L25.8031 15.2321L22.2391 21.4121C22.2391 21.4121 22.1991 21.4841 22.1191 21.6281C22.0391 21.7641 21.9591 21.9321 21.8791 22.1321C21.8071 22.3321 21.7711 22.5321 21.7711 22.7321H21.6511L21.1831 21.6881L25.7071 13.9241ZM17.5711 21.6161V22.4921H16.2391V22.3721C16.2471 22.3721 16.2831 22.3721 16.3471 22.3721C16.4031 22.3721 16.4311 22.3721 16.4311 22.3721C16.6471 22.3721 16.8391 22.3081 17.0071 22.1801C17.1751 22.0441 17.2751 21.8561 17.3071 21.6161H17.5711ZM18.0991 21.8081C18.0991 21.8161 18.0991 21.8241 18.0991 21.8321C18.0991 21.8401 18.0991 21.8521 18.0991 21.8681C18.0991 21.9961 18.1431 22.1161 18.2311 22.2281C18.3271 22.3321 18.4391 22.3841 18.5671 22.3841H18.7471V22.4921H18.0151V21.8081H18.0991ZM18.3031 13.9241H18.4111L18.8311 15.1241L18.0271 22.4921H17.1871L18.3031 13.9241ZM18.4111 13.9241L22.3351 20.3681L21.6511 22.7321L18.0991 16.7681L18.4111 13.9241ZM25.8151 13.9241L26.9551 22.4921H25.0231L24.4231 16.9721L25.7071 13.9241H25.8151ZM26.5831 21.6161H26.8351C26.8751 21.8561 26.9791 22.0441 27.1471 22.1801C27.3151 22.3081 27.5031 22.3721 27.7111 22.3721C27.7111 22.3721 27.7431 22.3721 27.8071 22.3721C27.8711 22.3721 27.9031 22.3721 27.9031 22.3721V22.4921H26.5831V21.6161ZM24.9511 21.8081H25.0351V22.4921H24.3031V22.3841H24.4831C24.6191 22.3841 24.7311 22.3321 24.8191 22.2281C24.9071 22.1161 24.9511 21.9961 24.9511 21.8681C24.9511 21.8521 24.9511 21.8401 24.9511 21.8321C24.9511 21.8241 24.9511 21.8161 24.9511 21.8081Z" fill="url(#paint3_linear_8_63)"/>
<defs>
<linearGradient id="paint0_linear_8_63" x1="10.0166" y1="3.05468" x2="564.808" y2="211.102" gradientUnits="userSpaceOnUse">
<stop stop-color="#FFF5C3"/>
<stop offset="0.5" stop-color="#D4AF37"/>
<stop offset="1" stop-color="#AA7A00"/>
</linearGradient>
<linearGradient id="paint1_linear_8_63" x1="5.27763" y1="7.49214" x2="5.27763" y2="30.2733" gradientUnits="userSpaceOnUse">
<stop stop-color="#E4CD81"/>
<stop offset="1" stop-color="#7E7147"/>
</linearGradient>
<linearGradient id="paint2_linear_8_63" x1="12.8174" y1="12.5546" x2="12.8174" y2="28.3748" gradientUnits="userSpaceOnUse">
<stop stop-color="#E4CD81"/>
<stop offset="1" stop-color="#7E7147"/>
</linearGradient>
<linearGradient id="paint3_linear_8_63" x1="22.0658" y1="7.49214" x2="22.0658" y2="30.2733" gradientUnits="userSpaceOnUse">
<stop stop-color="#E4CD81"/>
<stop offset="1" stop-color="#7E7147"/>
</linearGradient>
</defs>
</svg>
